<?xml version="1.0" encoding="UTF-8"?>
<!-- Created with Inkscape (http://www.inkscape.org/) -->
<svg width="136.53mm" height="17.496mm" version="1.1" viewBox="0 0 136.53 17.496" xmlns="http://www.w3.org/2000/svg" xmlns:cc="http://creativecommons.org/ns#" xmlns:dc="http://purl.org/dc/elements/1.1/" xmlns:rdf="http://www.w3.org/1999/02/22-rdf-syntax-ns#">
 <metadata>
  <rdf:RDF>
   <cc:Work rdf:about="">
    <dc:format>image/svg+xml</dc:format>
    <dc:type rdf:resource="http://purl.org/dc/dcmitype/StillImage"/>
    <dc:title/>
   </cc:Work>
  </rdf:RDF>
 </metadata>
 <g transform="translate(-7.4965 -42.665)">
  <path d="m73.327 51.618a5.8964 7.106 0 0 1-5.8964 7.106 5.8964 7.106 0 0 1-5.8964-7.106 5.8964 7.106 0 0 1 5.8964-7.106 5.8964 7.106 0 0 1 5.8964 7.106z" fill="#87ceeb" stroke="#00c8ff" stroke-linecap="round" style="paint-order:markers stroke fill"/>
  <g fill="#fff" stroke="#fff">
   <g stroke-width=".26458" aria-label="LookOutside">
    <path d="m17.881 59.819h-10.385v-16.415h2.1828v14.475h8.2021z"/>
    <path d="m30.394 53.667q0 3.0096-1.5434 4.7515-1.5434 1.7418-4.1341 1.7418-2.6128 0-4.1562-1.7418-1.5324-1.7418-1.5324-4.7515 0-3.0096 1.5324-4.7515 1.5434-1.7529 4.1562-1.7529 2.5907 0 4.1341 1.7529 1.5434 1.7418 1.5434 4.7515zm-2.1387 0q0-2.3923-0.93707-3.5498-0.93707-1.1686-2.6017-1.1686-1.6867 0-2.6238 1.1686-0.92604 1.1576-0.92604 3.5498 0 2.3151 0.93707 3.5168 0.93707 1.1906 2.6128 1.1906 1.6536 0 2.5907-1.1796 0.94809-1.1906 0.94809-3.5278z"/>
    <path d="m44.108 53.667q0 3.0096-1.5434 4.7515-1.5434 1.7418-4.1341 1.7418-2.6128 0-4.1562-1.7418-1.5324-1.7418-1.5324-4.7515 0-3.0096 1.5324-4.7515 1.5434-1.7529 4.1562-1.7529 2.5907 0 4.1341 1.7529 1.5434 1.7418 1.5434 4.7515zm-2.1387 0q0-2.3923-0.93707-3.5498-0.93707-1.1686-2.6017-1.1686-1.6867 0-2.6238 1.1686-0.92604 1.1576-0.92604 3.5498 0 2.3151 0.93707 3.5168 0.93707 1.1906 2.6128 1.1906 1.6536 0 2.5907-1.1796 0.94809-1.1906 0.94809-3.5278z"/>
    <path d="m58.506 59.819h-2.734l-4.9389-5.3909-1.345 1.2788v4.1121h-2.0726v-17.154h2.0726v11.002l5.9862-6.1626h2.6128l-5.7216 5.6885z"/>
    <path d="m73.091 45.289q1.0032 1.1024 1.5324 2.701 0.54019 1.5985 0.54019 3.627 0 2.0285-0.55122 3.638-0.54019 1.5985-1.5214 2.6679-1.0142 1.1135-2.4033 1.6757-1.378 0.56224-3.153 0.56224-1.7308 0-3.153-0.57326-1.4111-0.57326-2.4033-1.6647-0.99219-1.0914-1.5324-2.6789-0.52917-1.5875-0.52917-3.627 0-2.0064 0.52917-3.5939 0.52917-1.5985 1.5434-2.734 0.97014-1.0804 2.4033-1.6536 1.4442-0.57326 3.1419-0.57326 1.7639 0 3.164 0.58429 1.4111 0.57326 2.3923 1.6426zm-0.19844 6.328q0-3.197-1.4332-4.9279-1.4332-1.7418-3.9136-1.7418-2.5025 0-3.9357 1.7418-1.4221 1.7308-1.4221 4.9279 0 3.2301 1.4552 4.9499 1.4552 1.7088 3.9026 1.7088 2.4474 0 3.8916-1.7088 1.4552-1.7198 1.4552-4.9499z"/>
    <path d="m88.668 59.819h-2.0726v-1.367q-1.0473 0.82682-2.0064 1.2678-0.95911 0.44097-2.1167 0.44097-1.9403 0-3.0207-1.1796-1.0804-1.1906-1.0804-3.4837v-7.9926h2.0726v7.0115q0 0.93707 0.08819 1.6095 0.08819 0.66146 0.37483 1.1355 0.29766 0.48507 0.7717 0.70556 0.47404 0.22049 1.378 0.22049 0.80477 0 1.7529-0.41892 0.95912-0.41892 1.7859-1.0694v-9.1943h2.0726z"/>
    <path d="m99.142 59.708q-0.58429 0.15434-1.2788 0.25356-0.68351 0.09922-1.2237 0.09922-1.8852 0-2.8663-1.0142t-0.98116-3.2522v-6.5484h-1.4001v-1.7418h1.4001v-3.5388h2.0726v3.5388h4.2774v1.7418h-4.2774v5.6114q0 0.97014 0.0441 1.5214 0.0441 0.54019 0.30868 1.0142 0.24254 0.44097 0.66146 0.65043 0.42995 0.19844 1.3009 0.19844 0.50712 0 1.0583-0.14332 0.55122-0.15434 0.79375-0.25356h0.11024z"/>
    <path d="m110.45 56.269q0 1.6867-1.4001 2.7671-1.3891 1.0804-3.8034 1.0804-1.367 0-2.5136-0.3197-1.1355-0.33073-1.9072-0.71658v-2.3261h0.11024q0.98117 0.73863 2.1828 1.1796 1.2016 0.42995 2.3041 0.42995 1.367 0 2.1387-0.44097 0.7717-0.44097 0.7717-1.3891 0-0.7276-0.41892-1.1024-0.41893-0.37483-1.6096-0.63941-0.44097-0.09922-1.1576-0.23151-0.70556-0.13229-1.2898-0.28663-1.6206-0.42995-2.3041-1.2568-0.67248-0.83785-0.67248-2.0505 0-0.76068 0.30868-1.4332 0.31971-0.67248 0.95912-1.2016 0.61736-0.51814 1.5654-0.8158 0.95911-0.30868 2.1387-0.30868 1.1024 0 2.2269 0.27561 1.1355 0.26458 1.8852 0.65043v2.2159h-0.11024q-0.79375-0.58429-1.9293-0.98116-1.1355-0.4079-2.2269-0.4079-1.1355 0-1.9182 0.44097-0.78272 0.42995-0.78272 1.2898 0 0.76068 0.47404 1.1465 0.46302 0.38585 1.4993 0.62838 0.57326 0.13229 1.2788 0.26458 0.71658 0.13229 1.1906 0.24253 1.4442 0.33073 2.2269 1.1355 0.78273 0.8158 0.78273 2.1608z"/>
    <path d="m115.66 45.443h-2.3372v-2.1497h2.3372zm-0.13229 14.376h-2.0726v-12.314h2.0726z"/>
    <path d="m129.63 59.819h-2.0726v-1.2898q-0.89297 0.7717-1.8631 1.2016-0.97013 0.42995-2.1056 0.42995-2.2049 0-3.5057-1.6977-1.2898-1.6977-1.2898-4.7074 0-1.5655 0.44097-2.7891 0.452-1.2237 1.2127-2.0836 0.74965-0.83785 1.7418-1.2788 1.0032-0.44097 2.0726-0.44097 0.97013 0 1.7198 0.20946 0.74965 0.19844 1.5765 0.62838v-5.3358h2.0726zm-2.0726-3.0317v-7.0666q-0.83784-0.37483-1.4993-0.51814t-1.4442-0.14332q-1.7418 0-2.712 1.2127-0.97014 1.2127-0.97014 3.4396 0 2.1938 0.74966 3.3404 0.74965 1.1355 2.4033 1.1355 0.88194 0 1.7859-0.38585 0.904-0.39688 1.6867-1.0142z"/>
    <path d="m144.02 53.877h-9.073q0 1.1355 0.34176 1.9844 0.34175 0.83785 0.93706 1.378 0.57327 0.52917 1.356 0.79375 0.79375 0.26458 1.7418 0.26458 1.2568 0 2.5246-0.49609 1.2788-0.50712 1.819-0.99219h0.11024v2.26q-1.0473 0.44097-2.1387 0.73863-1.0914 0.29766-2.2931 0.29766-3.0648 0-4.7846-1.6536-1.7198-1.6647-1.7198-4.7184 0-3.0207 1.6426-4.7956 1.6536-1.7749 4.3436-1.7749 2.4915 0 3.8365 1.4552 1.356 1.4552 1.356 4.1341zm-2.0174-1.5875q-0.011-1.6316-0.82683-2.5246-0.80477-0.89297-2.4584-0.89297-1.6647 0-2.6568 0.98116-0.98117 0.98116-1.1135 2.4364z"/>
   </g>
   <path d="m67.28 43.756h0.45357v15.875h-0.45357z" stroke-linecap="round" style="paint-order:markers stroke fill"/>
   <path d="m60.627 51.467h13.758v0.60476h-13.758z" stroke-linecap="round" style="paint-order:markers stroke fill"/>
  </g>
 </g>
</svg>
